<mxfile host="app.diagrams.net" modified="2020-12-03T16:30:40.800Z" agent="5.0 (Windows)" etag="wpL_OGH8QWB29oyueAL0" version="13.10.6" type="github">
  <diagram name="Page-1" id="0783ab3e-0a74-02c8-0abd-f7b4e66b4bec">
    <mxGraphModel dx="1198" dy="623" grid="1" gridSize="10" guides="1" tooltips="1" connect="1" arrows="1" fold="1" page="1" pageScale="1" pageWidth="850" pageHeight="1100" background="#ffffff" math="0" shadow="0">
      <root>
        <mxCell id="0" />
        <mxCell id="1" parent="0" />
        <mxCell id="hi194KBRoZlnsHGEEXop-1" value="" style="ellipse;fillColor=#000000;strokeColor=none;" vertex="1" parent="1">
          <mxGeometry x="430" y="28" width="50" height="50" as="geometry" />
        </mxCell>
        <mxCell id="hi194KBRoZlnsHGEEXop-2" value="ورود به پروفایل کاربر" style="shape=rect;html=1;rounded=1;whiteSpace=wrap;align=center;fontSize=21;fontStyle=1" vertex="1" parent="1">
          <mxGeometry x="365" y="138" width="180" height="80" as="geometry" />
        </mxCell>
        <mxCell id="hi194KBRoZlnsHGEEXop-3" value="" style="endArrow=open;endFill=1;endSize=12;html=1;fontSize=21;exitX=0.5;exitY=1;exitDx=0;exitDy=0;entryX=0.5;entryY=0;entryDx=0;entryDy=0;" edge="1" parent="1" source="hi194KBRoZlnsHGEEXop-1" target="hi194KBRoZlnsHGEEXop-2">
          <mxGeometry width="160" relative="1" as="geometry">
            <mxPoint x="480" y="278" as="sourcePoint" />
            <mxPoint x="640" y="278" as="targetPoint" />
          </mxGeometry>
        </mxCell>
        <mxCell id="hi194KBRoZlnsHGEEXop-4" value="انتخاب بخش سابقه ی خرید" style="shape=rect;html=1;rounded=1;whiteSpace=wrap;align=center;fontSize=21;fontStyle=1" vertex="1" parent="1">
          <mxGeometry x="365" y="280" width="180" height="80" as="geometry" />
        </mxCell>
        <mxCell id="hi194KBRoZlnsHGEEXop-5" value="" style="endArrow=open;endFill=1;endSize=12;html=1;fontSize=21;exitX=0.5;exitY=1;exitDx=0;exitDy=0;entryX=0.5;entryY=0;entryDx=0;entryDy=0;" edge="1" parent="1" source="hi194KBRoZlnsHGEEXop-2" target="hi194KBRoZlnsHGEEXop-4">
          <mxGeometry width="160" relative="1" as="geometry">
            <mxPoint x="454.5" y="228" as="sourcePoint" />
            <mxPoint x="454.5" y="288" as="targetPoint" />
          </mxGeometry>
        </mxCell>
        <mxCell id="hi194KBRoZlnsHGEEXop-12" value="" style="ellipse;html=1;shape=endState;fillColor=#000000;strokeColor=#ff0000;fontSize=21;" vertex="1" parent="1">
          <mxGeometry x="430" y="525" width="50" height="50" as="geometry" />
        </mxCell>
        <mxCell id="hi194KBRoZlnsHGEEXop-14" value="" style="endArrow=open;endFill=1;endSize=12;html=1;fontSize=21;exitX=0.5;exitY=1;exitDx=0;exitDy=0;entryX=0.5;entryY=0;entryDx=0;entryDy=0;" edge="1" parent="1" source="hi194KBRoZlnsHGEEXop-4" target="hi194KBRoZlnsHGEEXop-15">
          <mxGeometry width="160" relative="1" as="geometry">
            <mxPoint x="447.5" y="410" as="sourcePoint" />
            <mxPoint x="620" y="440" as="targetPoint" />
          </mxGeometry>
        </mxCell>
        <mxCell id="hi194KBRoZlnsHGEEXop-15" value="نشان دادن لیست سابقه خرید" style="shape=rect;html=1;rounded=1;whiteSpace=wrap;align=center;fontSize=21;fontStyle=1" vertex="1" parent="1">
          <mxGeometry x="367.5" y="410" width="175" height="60" as="geometry" />
        </mxCell>
        <mxCell id="hi194KBRoZlnsHGEEXop-16" value="" style="endArrow=open;endFill=1;endSize=12;html=1;fontSize=21;exitX=0.5;exitY=1;exitDx=0;exitDy=0;entryX=0.5;entryY=0;entryDx=0;entryDy=0;" edge="1" parent="1" source="hi194KBRoZlnsHGEEXop-15" target="hi194KBRoZlnsHGEEXop-12">
          <mxGeometry width="160" relative="1" as="geometry">
            <mxPoint x="660" y="512" as="sourcePoint" />
            <mxPoint x="660" y="562" as="targetPoint" />
            <Array as="points" />
          </mxGeometry>
        </mxCell>
      </root>
    </mxGraphModel>
  </diagram>
</mxfile>
